<?xml version="1.0" standalone="no"?>
<!DOCTYPE svg PUBLIC "-//W3C//DTD SVG 1.1//EN" "http://www.w3.org/Graphics/SVG/1.1/DTD/svg11.dtd">
<!--Generator: Xara Xtreme (www.xara.com), SVG filter version: 1.0.0.13-->
<svg stroke-width="0.501" stroke-linejoin="bevel" fill-rule="evenodd" xmlns:xlink="http://www.w3.org/1999/xlink" xmlns="http://www.w3.org/2000/svg" version="1.1" overflow="visible" width="1683.78pt" height="667.517pt" viewBox="0 0 1683.78 667.517">
 <defs>
  <marker id="DefaultArrow2" markerUnits="strokeWidth" viewBox="0 0 1 1" markerWidth="1" markerHeight="1" overflow="visible" orient="auto">
   <!-- REF_ARROW_STRAIGHT (-2) -->
   <g transform="scale(0.0092592592)">
    <!-- 1/108 -->
    <path d="M -9 54 L -9 -54 L 117 0 z"/>
   </g>
  </marker>
  <marker id="DefaultArrow3" markerUnits="strokeWidth" viewBox="0 0 1 1" markerWidth="1" markerHeight="1" overflow="visible" orient="auto">
   <!-- REF_ARROW_ANGLED -->
   <g transform="scale(0.0092592592)">
    <path d="M -27 54 L -9 0 L -27 -54 L 135 0 z"/>
   </g>
  </marker>
  <marker id="DefaultArrow4" markerUnits="strokeWidth" viewBox="0 0 1 1" markerWidth="1" markerHeight="1" overflow="visible" orient="auto">
   <!-- REF_ARROW_ROUNDED -->
   <g transform="scale(0.0092592592)">
    <path d="M -9,0 L -9,-45 C -9,-51.708 2.808,-56.580 9,-54 L 117,-9 C 120.916,-7.369 126.000,-4.242 126,0 C 126,4.242 120.916,7.369 117,9 L 9,54 C 2.808,56.580 -9,51.708 -9,45 z"/>
   </g>
  </marker>
  <marker id="DefaultArrow5" markerUnits="strokeWidth" viewBox="0 0 1 1" markerWidth="1" markerHeight="1" overflow="visible" orient="auto">
   <!-- REF_ARROW_SPOT -->
   <g transform="scale(0.0092592592)">
    <path d="M -54, 0 C -54,29.807 -29.807,54 0,54 C 29.807,54 54,29.807 54,0 C 54,-29.807 29.807,-54 0,-54 C -29.807,-54 -54,-29.807 -54,0 z"/>
   </g>
  </marker>
  <marker id="DefaultArrow6" markerUnits="strokeWidth" viewBox="0 0 1 1" markerWidth="1" markerHeight="1" overflow="visible" orient="auto">
   <!-- REF_ARROW_DIAMOND -->
   <g transform="scale(0.0092592592)">
    <path d="M -63,0 L 0,63 L 63,0 L 0,-63 z"/>
   </g>
  </marker>
  <marker id="DefaultArrow7" markerUnits="strokeWidth" viewBox="0 0 1 1" markerWidth="1" markerHeight="1" overflow="visible" orient="auto">
   <!-- REF_ARROW_FEATHER -->
   <g transform="scale(0.0092592592)">
    <path d="M 18,-54 L 108,-54 L 63,0 L 108,54 L 18, 54 L -36,0 z"/>
   </g>
  </marker>
  <marker id="DefaultArrow8" markerUnits="strokeWidth" viewBox="0 0 1 1" markerWidth="1" markerHeight="1" overflow="visible" orient="auto">
   <!-- REF_ARROW_FEATHER2 -->
   <g transform="scale(0.0092592592)">
    <path d="M -36,0 L 18,-54 L 54,-54 L 18,-18 L 27,-18 L 63,-54 L 99,-54 L 63,-18 L 72,-18 L 108,-54 L 144,-54 L 90,0 L 144,54 L 108,54 L 72,18 L 63,18 L 99,54 L 63,54 L 27,18 L 18,18 L 54,54 L 18,54 z"/>
   </g>
  </marker>
  <marker id="DefaultArrow9" markerUnits="strokeWidth" viewBox="0 0 1 1" markerWidth="1" markerHeight="1" overflow="visible" orient="auto">
   <!-- REF_ARROW_HOLLOWDIAMOND -->
   <g transform="scale(0.0092592592)">
    <path d="M 0,45 L -45,0 L 0, -45 L 45, 0 z M 0, 63 L-63, 0 L 0, -63 L 63, 0 z"/>
   </g>
  </marker>
  <filter id="StainedFilter">
   <feBlend mode="multiply" in2="BackgroundImage" in="SourceGraphic" result="blend"/>
   <feComposite in="blend" in2="SourceAlpha" operator="in" result="comp"/>
  </filter>
  <filter id="BleachFilter">
   <feBlend mode="screen" in2="BackgroundImage" in="SourceGraphic" result="blend"/>
   <feComposite in="blend" in2="SourceAlpha" operator="in" result="comp"/>
  </filter>
  <filter id="InvertTransparencyBitmapFilter">
   <feComponentTransfer>
    <feFuncR type="gamma" amplitude="1.055" exponent=".416666666" offset="-0.055"/>
    <feFuncG type="gamma" amplitude="1.055" exponent=".416666666" offset="-0.055"/>
    <feFuncB type="gamma" amplitude="1.055" exponent=".416666666" offset="-0.055"/>
   </feComponentTransfer>
   <feComponentTransfer>
    <feFuncR type="linear" slope="-1" intercept="1"/>
    <feFuncG type="linear" slope="-1" intercept="1"/>
    <feFuncB type="linear" slope="-1" intercept="1"/>
    <feFuncA type="linear" slope="1" intercept="0"/>
   </feComponentTransfer>
   <feComponentTransfer>
    <feFuncR type="gamma" amplitude="1" exponent="2.4" offset="0"/>
    <feFuncG type="gamma" amplitude="1" exponent="2.4" offset="0"/>
    <feFuncB type="gamma" amplitude="1" exponent="2.4" offset="0"/>
   </feComponentTransfer>
  </filter>
 </defs>
 <g id="Document" fill="none" stroke="black" font-family="Times New Roman" font-size="16" transform="scale(1 -1)">
  <g id="Spread" transform="translate(0 -667.517)">
   <g id="Layer 1">
    <g id="Group" stroke="none">
     <rect x="0.001" y="0" width="1683.783" height="667.517" fill="#333333" stroke-linecap="round" stroke-width="0.5" stroke-linejoin="miter" stroke-miterlimit="79.8403193612775"/>
     <path d="M 304.409,44.318 C 402.914,161.389 496.447,279.087 574.691,398.995 C 579.59,406.327 576.606,408.169 564.007,403.304 C 486.941,382.196 411.865,364.921 336.975,347.828 C 333.4,347.275 331.374,344.29 329.901,340.275 C 305.514,299.974 279.995,260.519 249.631,224.087 C 189.18,155.459 133.333,132.988 80.177,136.856 C 25.877,151.334 11.768,180.324 29.303,220.514 C 57.301,289.219 132.265,317.03 206.089,345.692 L 305.183,374.903 C 317.222,381.902 320.287,385.919 323.492,390.854 C 372.191,464.095 411.055,511.683 462.003,558.135 C 526.174,610.188 581.358,635.421 626.852,631.775 C 669.621,627.207 697.987,608.162 682.994,545.133 C 673.046,516.066 661.591,487.886 648.955,460.624 C 642.73,451.084 644.203,446.849 660.817,453.552 L 810.047,479.117 C 816.937,479.449 821.689,477.902 816.679,467.883 L 810.563,459.998 C 807.616,456.278 803.601,453.589 797.744,452.816 C 724.547,416.714 687.45,371.588 657.392,324.841 C 638.42,289.734 637.499,271.573 683.141,297.064 C 746.318,344.437 794.577,411.336 843.091,477.828 C 845.854,481.99 848.395,481.659 850.863,478.307 C 855.286,472.782 857.422,471.382 854.917,466.999 C 829.829,413.473 804.485,359.909 772.988,305.133 C 766.431,295.628 767.573,293.307 779.694,300.748 L 835.062,331.361 C 842.207,334.897 843.902,340.533 845.228,346.428 C 878.825,414.614 921.078,462.503 973.978,484.976 C 1004.92,492.159 1024.3,487.112 999.138,435.096 C 969.482,394.464 929.807,358.51 876.136,329.151 C 864.531,324.287 873.521,304.32 891.348,317.141 C 960.31,350.554 1030.56,418.04 1101.25,493.89 C 1104.75,496.984 1108.25,494.479 1111.75,490.906 C 1120.3,493.558 1122.88,490.575 1120.78,483.316 C 1112.34,455.099 1101.58,429.903 1087.73,408.353 C 1085.3,402.162 1085.56,399.252 1092.82,405.185 C 1142.4,475.618 1205.21,504.942 1277.89,502.509 C 1281.76,501.257 1284.12,499.378 1282.42,494.295 L 1275.09,478.27 C 1272.7,474.071 1267.24,470.793 1259.47,468.435 C 1248.86,468.509 1235.31,454.694 1220.68,436.386 C 1202.63,416.567 1197.29,396.232 1194.49,375.75 C 1191.8,357.331 1201.42,357.221 1224.11,376.413 C 1258.66,414.799 1283.12,458.083 1302.39,503.724 C 1305.41,506.305 1308.5,505.753 1311.45,502.288 C 1315.32,502.546 1318.04,500.667 1319.41,496.174 C 1307.66,457.715 1298.96,418.593 1293.55,378.955 C 1290.67,361.53 1294.95,351.29 1320.48,362.414 L 1442.11,402.126 C 1452.25,404.559 1454.35,400.468 1447.68,391.112 L 1442.74,385.145 C 1441.05,383.338 1437.99,381.533 1434.05,379.765 L 1324.31,338.212 C 1311.12,333.424 1297.97,331.029 1284.89,329.298 C 1273.07,328.451 1264.67,331.987 1267.28,349.338 L 1272.81,383.007 C 1276.49,398.332 1275.2,402.347 1264.37,384.666 C 1241.02,353.279 1217.92,326.683 1195.48,318.614 C 1173.75,312.537 1156.36,313.605 1157.32,344.142 C 1158.94,389.234 1178.8,420.029 1200.9,448.801 C 1212.43,462.613 1211.43,467.993 1194.12,459.004 C 1165.76,449.022 1108.47,393.764 1035.46,303.289 L 1029.86,297.433 C 1025.88,293.675 1021.24,292.055 1015.68,291.134 L 1001.61,289.882 C 988.601,288.924 992.763,298.022 1000.76,305.612 C 1029.68,342.043 1047.39,373.061 1057.64,398.737 C 1063.68,410.931 1063.97,416.125 1046.66,399.289 C 981.75,335.192 922.404,287.782 873.113,270.873 C 842.613,261.515 835.651,273.23 831.081,287.119 C 829.903,303.842 829.682,306.717 817.711,298.022 L 749.117,256.432 C 744.734,253.375 738.509,247.113 733.571,237.571 C 657.576,127.5 591.634,70.953 536.6,72.795 C 496.889,77.105 492.061,95.671 514.35,125.401 C 549.455,172.221 634.295,219.925 719.942,267.705 C 726.683,271.462 730.219,277.098 733.978,282.66 L 748.638,301.889 C 759.064,315.115 752.248,325.099 735.82,302.589 C 696.882,265.716 657.981,228.547 614.844,226.557 C 592.629,226.484 587.804,240.738 592.629,262.841 C 613.921,327.383 651.754,379.581 704.691,420.434 C 726.499,435.722 727.677,445.891 702.223,435.612 L 627.846,419.734 C 623.647,417.929 619.412,411.926 615.065,405.664 C 528.789,277.577 432.568,158.48 331.153,44.281 C 327.138,38.572 323.197,34.962 319.477,35.625 C 303.931,34.447 300.284,37.909 304.409,44.318 Z M 569.421,114.348 C 583.494,120.094 597.751,128.163 612.079,138.44 C 633.777,155.901 655.845,179.109 677.947,205.339 C 689.624,217.641 680.673,218.268 672.825,211.49 L 641.661,192.261 L 596.425,160.1 C 583.31,151.076 572.184,140.613 562.644,129.158 C 553.396,116.484 559.623,111.033 569.421,114.348 Z M 217.509,246.155 C 239.686,270.21 261.494,294.486 281.57,320.161 C 292.068,334.492 284.48,334.234 273.501,331.25 C 225.466,318.651 180.119,300.969 138.013,276.914 C 117.015,264.683 96.128,247.997 85.555,230.646 C 73.287,205.339 85.223,196.091 102.759,190.64 C 132.78,190.124 169.25,204.489 217.509,246.155 Z M 898.386,368.384 C 927.008,387.245 953.312,409.716 975.267,438.411 C 985.47,453.184 977.293,454.584 967.935,448.985 C 961.931,445.412 955.89,441.432 949.847,436.386 C 934.745,422.202 920.857,407.542 908.036,392.622 L 892.932,374.056 C 887.554,366.91 886.412,362.709 898.386,368.384 Z M 379.007,392.438 L 432.457,406.069 L 589.719,439.516 C 596.057,440.474 600.44,442.868 602.466,446.922 C 616.796,479.007 625.415,505.274 629.467,526.75 C 628.325,560.382 612.669,577.917 578.374,574.86 C 512.801,569.371 455.704,509.252 399.747,442.758 L 370.128,404.409 C 362.245,394.575 355.836,385.403 379.007,392.438 Z" stroke-width="2.763" fill="#ffffff" stroke-linejoin="miter" marker-start="none" marker-end="none" stroke-miterlimit="79.8403193612775"/>
     <path d="M 1266.29,147.982 L 1292.81,200.438 L 1341.33,319.314 C 1343.39,324.25 1345.67,328.083 1352.08,329.888 L 1382.51,341.674 C 1397.06,345.618 1401.89,341.417 1392.97,326.02 L 1371.75,276.803 C 1366.12,264.646 1369.28,262.215 1386.01,274.52 C 1446.98,313.163 1507.43,354.016 1567.44,396.195 C 1584.82,409.2 1582.39,420.361 1557.93,412.662 L 1460.5,386.361 L 1481.68,415.977 C 1522.42,431.229 1562.98,444.01 1603.32,449.832 C 1663.14,460.882 1683.66,445.523 1632.6,399.658 C 1567.22,340.017 1494.72,291.023 1417.29,249.839 C 1403.4,243.501 1395.88,237.976 1414.63,236.945 C 1481.27,235.84 1548.13,236.503 1614.96,238.344 C 1626.27,239.081 1635.77,237.092 1627.74,222.54 C 1619.38,210.238 1598.53,204.047 1585.93,206.076 C 1508.94,203.863 1432.13,204.784 1355.29,205.781 C 1344.09,205.376 1341.44,203.642 1336.8,192.519 L 1326.96,166.733 C 1317.53,148.129 1305.26,144.959 1292.29,146.03 L 1266.29,147.982 Z" stroke-width="2.763" fill="#c3152f" stroke-linecap="round" stroke-linejoin="round" marker-start="none" marker-end="none" stroke-miterlimit="79.8403193612775"/>
    </g>
   </g>
   <g id="Layer_1"/>
  </g>
 </g>
</svg>
